<mxfile host="65bd71144e">
    <diagram id="-SNB5-MCPIH-QAiN0riX" name="Page-1">
        <mxGraphModel dx="613" dy="563" grid="1" gridSize="10" guides="1" tooltips="1" connect="1" arrows="1" fold="1" page="1" pageScale="1" pageWidth="850" pageHeight="1100" math="0" shadow="0">
            <root>
                <mxCell id="0"/>
                <mxCell id="1" parent="0"/>
                <mxCell id="2" value="" style="rounded=1;whiteSpace=wrap;html=1;" vertex="1" parent="1">
                    <mxGeometry x="20" y="80" width="590" height="480" as="geometry"/>
                </mxCell>
                <mxCell id="3" value="a" style="rounded=1;whiteSpace=wrap;html=1;" vertex="1" parent="1">
                    <mxGeometry x="40" y="110" width="120" height="130" as="geometry"/>
                </mxCell>
                <mxCell id="10" value="b" style="rounded=1;whiteSpace=wrap;html=1;" vertex="1" parent="1">
                    <mxGeometry x="180" y="110" width="120" height="130" as="geometry"/>
                </mxCell>
                <mxCell id="11" value="d" style="rounded=1;whiteSpace=wrap;html=1;" vertex="1" parent="1">
                    <mxGeometry x="460" y="110" width="120" height="130" as="geometry"/>
                </mxCell>
                <mxCell id="12" value="c" style="rounded=1;whiteSpace=wrap;html=1;" vertex="1" parent="1">
                    <mxGeometry x="320" y="110" width="120" height="130" as="geometry"/>
                </mxCell>
                <mxCell id="13" value="e" style="rounded=1;whiteSpace=wrap;html=1;" vertex="1" parent="1">
                    <mxGeometry x="40" y="260" width="120" height="130" as="geometry"/>
                </mxCell>
                <mxCell id="14" value="f" style="rounded=1;whiteSpace=wrap;html=1;" vertex="1" parent="1">
                    <mxGeometry x="180" y="260" width="120" height="130" as="geometry"/>
                </mxCell>
                <mxCell id="15" value="g" style="rounded=1;whiteSpace=wrap;html=1;" vertex="1" parent="1">
                    <mxGeometry x="320" y="260" width="120" height="130" as="geometry"/>
                </mxCell>
                <mxCell id="16" value="h" style="rounded=1;whiteSpace=wrap;html=1;" vertex="1" parent="1">
                    <mxGeometry x="460" y="260" width="120" height="130" as="geometry"/>
                </mxCell>
                <mxCell id="18" value="i" style="rounded=1;whiteSpace=wrap;html=1;" vertex="1" parent="1">
                    <mxGeometry x="40" y="410" width="120" height="130" as="geometry"/>
                </mxCell>
                <mxCell id="19" value="j" style="rounded=1;whiteSpace=wrap;html=1;" vertex="1" parent="1">
                    <mxGeometry x="180" y="410" width="120" height="130" as="geometry"/>
                </mxCell>
                <mxCell id="20" value="k" style="rounded=1;whiteSpace=wrap;html=1;" vertex="1" parent="1">
                    <mxGeometry x="320" y="410" width="120" height="130" as="geometry"/>
                </mxCell>
                <mxCell id="21" value="l" style="rounded=1;whiteSpace=wrap;html=1;" vertex="1" parent="1">
                    <mxGeometry x="460" y="410" width="120" height="130" as="geometry"/>
                </mxCell>
            </root>
        </mxGraphModel>
    </diagram>
</mxfile>